<?xml version="1.0" encoding="UTF-8"?>
<svg version="1.1" xmlns="http://www.w3.org/2000/svg" width="1103" height="512">
<path d="M0 0 C363.99 0 727.98 0 1103 0 C1103 168.96 1103 337.92 1103 512 C739.01 512 375.02 512 0 512 C0 343.04 0 174.08 0 0 Z " fill="#FEFEFE" transform="translate(0,0)"/>
<path d="M0 0 C12.17604313 9.58349357 19.86756572 21.79435636 21.875 37.3125 C22.6208315 47.19815751 20.8043635 56.62814099 17.02734375 65.75 C15.22038521 70.75629205 14.96763775 75.86509608 14.76782227 81.1472168 C14.72853104 82.14150696 14.72853104 82.14150696 14.68844604 83.15588379 C14.63226164 84.58804276 14.5777721 86.02026904 14.5248127 87.45255089 C14.43991616 89.73935646 14.34979099 92.0259041 14.25828552 94.31245422 C13.99909316 100.81194572 13.7489296 107.31177356 13.50268555 113.81176758 C12.16945862 148.86111075 12.16945862 148.86111075 10.125 164.25 C11.68988159 164.2188208 11.68988159 164.2188208 13.28637695 164.18701172 C35.23287724 163.82053936 57.10250913 165.87197276 74 181.5625 C85.50460482 194.18045368 89.06772323 207.56160215 88.50390625 224.2421875 C87.86620425 234.96917474 83.63550381 243.78377173 77.125 252.25 C76.37575256 253.27601822 75.62650513 254.30203644 74.85455322 255.35914612 C70.07869137 260.03041761 63.75603975 259.10988419 57.47558594 259.07397461 C56.0820521 259.08702779 54.68853978 259.10258122 53.2950592 259.12043762 C49.51982638 259.16052869 45.74549595 259.16235274 41.97009182 259.15474772 C38.8118079 259.15153157 35.65370485 259.16620708 32.49545979 259.18056399 C25.03866427 259.21382511 17.58232206 259.21517806 10.12548828 259.19702148 C2.45073423 259.17892039 -5.22236729 259.2157884 -12.89683938 259.27973169 C-19.50014083 259.33271266 -26.1029185 259.35056283 -32.70642447 259.34081846 C-36.64409811 259.33539765 -40.58059417 259.34310133 -44.51807404 259.38496208 C-48.22567258 259.42290455 -51.93071438 259.41668566 -55.63827705 259.37772942 C-57.63308102 259.36733383 -59.62796548 259.40102585 -61.6224823 259.43643188 C-69.85194454 259.29311308 -74.02747532 257.53621429 -79.81324387 251.63724613 C-91.77300713 237.78939181 -95.05011051 223.378097 -95.0078125 205.4921875 C-95.00922241 204.59456192 -95.01063232 203.69693634 -95.01208496 202.77210999 C-95.0142008 199.88969847 -95.00796351 197.00740018 -95 194.125 C-94.9984491 193.13791046 -94.99689819 192.15082092 -94.99530029 191.13381958 C-94.9580763 170.98357484 -94.2107865 151.03164994 -92.60595703 130.94506836 C-91.9154726 121.88326388 -91.60203512 112.83192977 -91.375 103.75 C-89.45025733 28.88638705 -89.45025733 28.88638705 -66.2421875 4.43359375 C-47.95018945 -12.43971799 -20.33068134 -13.90607479 0 0 Z " fill="#3F48CC" transform="translate(803.875,253.75)"/>
<path d="M0 0 C6.34550978 5.79905991 12.73764573 17.04011221 13.64624023 25.67016602 C14.24167041 39.21365472 12.81096894 50.22486472 7.4375 62.6875 C7.16486328 63.33332031 6.89222656 63.97914062 6.61132812 64.64453125 C-2.14730527 84.93431509 -18.3499499 98.79908515 -38.375 107.58984375 C-45.25501001 109.95906288 -52.43398314 111.28375466 -59.5625 112.6875 C-59.25555541 115.79224234 -58.940986 118.89616586 -58.625 122 C-58.49448242 123.32161133 -58.49448242 123.32161133 -58.36132812 124.66992188 C-58.23081055 125.94125977 -58.23081055 125.94125977 -58.09765625 127.23828125 C-58.019104 128.01856689 -57.94055176 128.79885254 -57.85961914 129.6027832 C-57.59912003 131.87632001 -57.59912003 131.87632001 -56.5625 134.6875 C-56.39621027 136.01955545 -56.26878474 137.3567087 -56.16796875 138.6953125 C-56.1014209 139.50460205 -56.03487305 140.3138916 -55.96630859 141.14770508 C-55.89492676 142.0270874 -55.82354492 142.90646973 -55.75 143.8125 C-55.03504815 152.12618144 -53.85659641 160.27937276 -52.4375 168.5 C-48.29141431 193.21421854 -48.29141431 193.21421854 -52.25 200.9375 C-55.94330079 205.32953337 -59.13272074 208.35435265 -65.015625 208.92578125 C-71.52092976 209.09840805 -75.32660689 208.64113357 -80.5625 204.6875 C-84.11138378 200.91989197 -85.26229691 197.97161558 -86.16015625 192.90234375 C-86.2785939 192.24926743 -86.39703156 191.5961911 -86.51905823 190.92332458 C-86.88738542 188.84758616 -87.2294351 186.76917081 -87.5625 184.6875 C-87.66890808 184.02663391 -87.77531616 183.36576782 -87.88494873 182.68487549 C-88.64577452 177.88091399 -89.3305145 173.06741713 -90 168.25 C-90.10477661 167.50436798 -90.20955322 166.75873596 -90.31750488 165.99050903 C-91.0807693 160.5581794 -91.82702986 155.12365889 -92.5625 149.6875 C-92.66258362 148.94802124 -92.76266724 148.20854248 -92.86578369 147.44665527 C-96.77337473 118.46314532 -96.77337473 118.46314532 -97.34765625 103.87109375 C-97.59690422 98.05671597 -98.2615068 92.27718821 -98.90283203 86.49511719 C-99.40382613 81.85783212 -99.65616804 77.35216835 -99.5625 72.6875 C-100.64917969 72.55794922 -100.64917969 72.55794922 -101.7578125 72.42578125 C-108.23308142 71.48470883 -112.11464092 70.58014499 -116.5625 65.6875 C-120.29501489 60.46197915 -120.3700258 54.88457998 -119.5625 48.6875 C-118.32247905 45.92129943 -117.29343646 44.06686777 -115.5625 41.6875 C-115.11519531 40.99140625 -114.66789063 40.2953125 -114.20703125 39.578125 C-110.17401904 33.3069532 -105.84780963 26.97280963 -100.5625 21.6875 C-100.05885902 20.43393206 -99.60511777 19.15978878 -99.1875 17.875 C-97.38733738 12.93126983 -95.29578064 9.76598573 -90.75 6.9375 C-87.5625 5.6875 -87.5625 5.6875 -84.25 5.375 C-80.62893865 4.69988687 -79.34408097 4.05107908 -76.4375 2 C-53.62352022 -13.98895726 -22.69241694 -17.64102276 0 0 Z " fill="#FF7F27" transform="translate(922.5625,51.3125)"/>
<path d="M0 0 C3.8125 1.125 3.8125 1.125 7 3 C9.27726456 7.92570493 9.27814804 12.56171927 9.23046875 17.87109375 C9.23001053 18.7116481 9.22955231 19.55220245 9.2290802 20.41822815 C9.22607057 22.18907083 9.21822309 23.95991116 9.20581055 25.73071289 C9.18758192 28.42538961 9.18530098 31.1197212 9.18554688 33.81445312 C9.18062957 35.54166961 9.17480032 37.26888378 9.16796875 38.99609375 C9.16685593 39.79421982 9.1657431 40.59234589 9.16459656 41.41465759 C9.12586089 46.03459652 8.71999439 50.42552087 8 55 C7.81414336 56.97876011 7.64712011 58.95938962 7.5 60.94140625 C7.4175 62.01970703 7.335 63.09800781 7.25 64.20898438 C7.08304374 66.44854614 6.91637807 68.68812958 6.75 70.92773438 C6.6675 72.00474609 6.585 73.08175781 6.5 74.19140625 C6.4278125 75.16279541 6.355625 76.13418457 6.28125 77.13500977 C6.09123621 79.07061026 5.82932394 81.00028391 5.50219727 82.91748047 C4.94685911 86.32618222 4.68558523 89.68239591 4.46484375 93.12890625 C4.42186661 93.79985825 4.37888947 94.47081024 4.33460999 95.16209412 C4.24486867 96.57809816 4.15671501 97.99420362 4.07006836 99.41040039 C3.93935196 101.53243545 3.80107499 103.65388185 3.66210938 105.77539062 C2.9077518 117.63330617 2.57868803 129.35623474 3.875 141.1875 C3.95363281 142.01830078 4.03226563 142.84910156 4.11328125 143.70507812 C4.4494018 148.32514274 4.4494018 148.32514274 7 152 C10.2558594 149.82942707 12.26725563 147.85396865 13.9375 144.36328125 C14.27942383 143.65187988 14.62134766 142.94047852 14.97363281 142.20751953 C17.71388134 136.313769 20.3344565 130.37085891 22.93554688 124.41455078 C23.94262302 122.130151 24.97609724 119.85961498 26.015625 117.58984375 C30.77955141 106.98045088 34.06715977 96.21678011 37.13183594 85.00366211 C39.15727216 77.67324908 41.49333686 70.96054799 44.703125 64.06640625 C46.64641903 59.47156946 47.72748525 54.71278805 48.9375 49.8828125 C50.04298967 45.66165564 51.47628837 41.58640412 53 37.5 C53.2371875 36.85369629 53.474375 36.20739258 53.71875 35.54150391 C55.78911698 30.11101008 58.51899218 25.3354354 61.625 20.4375 C63.12652272 17.96794392 63.12652272 17.96794392 64 14.875 C65.48 10.62 65.48 10.62 68 9 C70.9375 8.5625 70.9375 8.5625 74 9 C76.59841753 11.02202437 77.86776929 12.15264403 78.3828125 15.453125 C77.82322772 21.52377206 76.44464114 26.7669829 74.140625 32.390625 C70.92835314 40.62449088 69.06035793 48.79764327 67.625 57.5 C67.43588547 58.61121216 67.43588547 58.61121216 67.24295044 59.74487305 C65.36113592 70.99770741 64.43445504 82.09290171 64.4375 93.5 C64.43508301 94.79744141 64.43266602 96.09488281 64.43017578 97.43164062 C64.55799788 104.65406285 64.75657581 112.39442395 68 119 C72.59026624 122.15296972 77.44515463 120.575944 82.6875 119.8984375 C86 120 86 120 88.421875 121.7578125 C90 124 90 124 90.25 127.5 C88.77200653 131.6383817 88.77200653 131.6383817 85.75 133.4375 C79.15537321 136.14389701 71.8047098 136.41258873 65.1171875 133.9296875 C59.39197607 130.80218395 55.37758851 127.13167564 53 121 C50.33485622 111.34625698 50.42030643 100.95462592 50 91 C49.6596875 92.23492187 49.319375 93.46984375 48.96875 94.7421875 C45.83832021 105.7988567 41.99612887 116.09673091 37.14013672 126.49707031 C35.85898339 129.30957222 34.64625029 132.14617729 33.44140625 134.9921875 C33.00473633 136.01981201 32.56806641 137.04743652 32.11816406 138.10620117 C31.26942113 140.10919006 30.42601883 142.11445335 29.58886719 144.12231445 C26.85784911 150.51497349 24.12243623 156.58011192 18.5 160.9375 C16.00202935 162.99832579 15.1368905 164.40087829 13.625 167.1875 C11.70988276 170.38933664 11.31006292 170.88516188 7.625 172.25 C3.3190802 171.95304001 0.36179375 170.61439496 -3 168 C-14.74934393 150.10191219 -11.46972816 123.35055447 -10.25537109 103.07666016 C-10.12473257 100.87048378 -10.00543993 98.66387728 -9.88671875 96.45703125 C-9.46850554 89.10430959 -8.76735365 81.92184752 -7.44140625 74.66748047 C-6.77874882 70.66294777 -6.58397578 66.67630583 -6.4375 62.625 C-6.37692441 61.11705443 -6.31318899 59.60923205 -6.24609375 58.1015625 C-6.22216553 57.45525879 -6.1982373 56.80895508 -6.17358398 56.14306641 C-6 54 -6 54 -5.49072266 51.21777344 C-4.93451983 47.57063249 -4.88758721 44.10319702 -4.90234375 40.4140625 C-4.9037587 39.71227875 -4.90517365 39.010495 -4.90663147 38.28744507 C-4.9121871 36.06658496 -4.92473108 33.84582916 -4.9375 31.625 C-4.94252074 30.11067855 -4.94708264 28.5963555 -4.95117188 27.08203125 C-4.96214193 23.38798748 -4.97937551 19.69400394 -5 16 C-5.36351562 16.44730469 -5.72703125 16.89460938 -6.1015625 17.35546875 C-8.61240948 20.3749232 -11.02020208 23.1312134 -14.15234375 25.515625 C-17.4100766 28.3577623 -18.76030138 30.84161745 -20.5625 34.75 C-21.15511953 35.99402874 -21.74887129 37.23751874 -22.34375 38.48046875 C-23.16359375 40.22263672 -23.16359375 40.22263672 -24 42 C-26.89661406 47.90269318 -29.3892076 52.37636324 -35 56 C-37.625 56.5625 -37.625 56.5625 -40 56 C-42.65874166 54.05983717 -43.80016589 52.84374403 -44.5625 49.625 C-43.90327615 46.54862202 -42.49973359 45.07115955 -40.421875 42.77734375 C-36.96297369 38.45371712 -34.88216189 33.00750038 -32.66796875 27.96875 C-29.67462252 21.43781277 -26.62583419 17.18588533 -21.02734375 12.66796875 C-18.84066682 10.99055638 -18.84066682 10.99055638 -16.9375 8.375 C-12.34130323 2.74095234 -7.55819799 -1.23679603 0 0 Z " fill="#FFC90E" transform="translate(528,141)"/>
<path d="M0 0 C1.625 2.4375 1.625 2.4375 1.75 6 C0.625 9.4375 0.625 9.4375 -1.8125 11.3125 C-5.5163689 12.48214281 -8.80482006 12.83506453 -12.65234375 13.1484375 C-19.323755 13.85673654 -25.43825745 14.75072209 -30 20 C-33.0052127 24.03879741 -33.49150663 26.48587675 -33.4375 31.5625 C-33.42847656 32.65820312 -33.41945313 33.75390625 -33.41015625 34.8828125 C-33.39855469 35.72585937 -33.38695312 36.56890625 -33.375 37.4375 C-32.78589844 37.69917969 -32.19679688 37.96085937 -31.58984375 38.23046875 C-29.25714566 39.5017275 -27.77145632 40.83980531 -25.9375 42.75 C-25.10412109 43.61044922 -25.10412109 43.61044922 -24.25390625 44.48828125 C-23.32384766 45.45314453 -23.32384766 45.45314453 -22.375 46.4375 C-21.57449219 47.18644531 -20.77398438 47.93539062 -19.94921875 48.70703125 C-16.98387068 51.8523701 -14.84916338 55.12587303 -12.625 58.8125 C-12.19670898 59.51149414 -11.76841797 60.21048828 -11.32714844 60.93066406 C-10.44003864 62.38176419 -9.55626252 63.83490741 -8.67578125 65.29003906 C-7.43890858 67.33199326 -6.18983555 69.36594178 -4.9375 71.3984375 C4.32653602 86.50805319 10.69805218 100.40415154 11.625 118.4375 C11.67785156 119.45070313 11.73070312 120.46390625 11.78515625 121.5078125 C11.97742692 128.31252243 11.85287868 133.00062198 6.99609375 138.171875 C-0.48243389 145.24248295 -9.84663027 148.9090764 -19.375 152.4375 C-21.0146875 153.05625 -21.0146875 153.05625 -22.6875 153.6875 C-31.94630309 155.57064639 -40.16681925 155.28329345 -48.375 150.4375 C-48.99632812 150.07914063 -49.61765625 149.72078125 -50.2578125 149.3515625 C-51.9375 148.3125 -51.9375 148.3125 -54.375 146.4375 C-54.375 145.7775 -54.375 145.1175 -54.375 144.4375 C-54.931875 144.251875 -55.48875 144.06625 -56.0625 143.875 C-59.50828946 141.73302277 -61.58429893 139.06844723 -63.375 135.4375 C-64.0370345 132.3989314 -63.84503295 130.62327891 -63.375 127.4375 C-61.40721339 124.52226058 -60.31777758 123.62605552 -56.875 122.9375 C-53.51853934 123.60879213 -52.48566492 124.7639911 -50.375 127.4375 C-50.024375 128.365625 -49.67375 129.29375 -49.3125 130.25 C-46.29941909 135.20700409 -41.64068704 138.10791594 -36.375 140.4375 C-26.45360839 141.41936384 -14.81105297 136.53096594 -6.375 131.4375 C-3.25952034 128.4486211 -2.41735989 127.01562296 -2.09765625 122.65234375 C-2.18476522 121.22472446 -2.29934936 119.79858674 -2.4375 118.375 C-2.4998584 117.61985107 -2.5622168 116.86470215 -2.62646484 116.08666992 C-3.98642786 101.44294915 -9.20489553 88.94528675 -17.6640625 76.97265625 C-19.0593503 74.90520925 -20.33196414 72.8363719 -21.5859375 70.68359375 C-26.91893674 61.6155659 -32.23858997 55.1990942 -40.375 48.4375 C-47.24517291 41.86559798 -47.24517291 41.86559798 -47.7109375 36.7421875 C-47.9534917 25.03463978 -46.59396462 17.05939154 -38.359375 8.2265625 C-30.34881356 1.00444215 -9.82789006 -6.46571714 0 0 Z " fill="#FFAEC9" transform="translate(702.375,138.5625)"/>
<path d="M0 0 C2.39392554 1.49559648 3.97011875 2.97011875 6 5 C6.763125 5.7425 7.52625 6.485 8.3125 7.25 C9.6428125 8.61125 9.6428125 8.61125 11 10 C11.763125 10.68320313 12.52625 11.36640625 13.3125 12.0703125 C19.69473608 17.95393639 19.69473608 17.95393639 20.61328125 21.1015625 C20.625 23 20.625 23 20 26 C19 27 19 27 16.4375 27.5625 C11.78249933 26.80077262 10.15110343 24.55553923 7.02734375 21.16796875 C4.6690443 18.64608783 2.12173435 16.49647741 -0.5546875 14.32421875 C-2 13 -2 13 -4 10 C-9.78597148 7.1577684 -14.74046419 5.8987424 -21 8 C-28.18973483 12.32529864 -33.56822891 20.08149916 -38.80029297 26.52832031 C-39.76910955 27.71676686 -40.75842313 28.88848678 -41.75390625 30.0546875 C-46.6262971 36.0290087 -49.71480061 43.09869809 -53.03442383 50.00610352 C-53.99077579 51.98095217 -54.97018247 53.9425799 -55.95703125 55.90234375 C-58.22525654 60.42443848 -60.39842298 64.9898381 -62.5625 69.5625 C-62.94857422 70.37396484 -63.33464844 71.18542969 -63.73242188 72.02148438 C-69.87592293 84.98877195 -74.99384659 98.20223845 -70.9375 112.75 C-68.57570669 118.87729396 -64.41458051 123.50296009 -58.875 126.9375 C-49.68169206 130.33502685 -40.40561354 129.21263647 -31 127.1875 C-30.12714355 127.00807861 -29.25428711 126.82865723 -28.35498047 126.64379883 C-23.86310156 125.6981622 -19.49081216 124.62065414 -15.125 123.1875 C-11.4328099 121.98721205 -8.79182603 121.76765654 -5 123 C-3 125 -3 125 -2.75 127.5 C-3 130 -3 130 -5 132 C-9.32816727 134.07104827 -13.90011339 134.9946073 -18.5625 136 C-19.76241577 136.26055176 -19.76241577 136.26055176 -20.98657227 136.52636719 C-37.17639156 139.99782396 -53.81824013 143.4267162 -68.60546875 133.90234375 C-76.76420258 127.42060904 -81.57932287 119.24122903 -83 109 C-83.14006485 106.64852664 -83.21976966 104.29294715 -83.25 101.9375 C-83.27578125 100.75027344 -83.3015625 99.56304687 -83.328125 98.33984375 C-82.78065036 86.33315848 -78.08891451 75.97951755 -72.9375 65.375 C-72.2591192 63.95770847 -71.58130869 62.54014384 -70.90405273 61.12231445 C-68.96022113 57.06954724 -66.9871536 53.03167803 -65 49 C-64.48856445 47.96182129 -63.97712891 46.92364258 -63.45019531 45.85400391 C-56.84639278 32.5879788 -49.41395875 21.32198787 -39.25 10.4453125 C-37.49146607 8.53412805 -35.88559182 6.62200837 -34.3125 4.5625 C-31.41931876 1.35654241 -28.86431407 -0.06784297 -25 -2 C-23.7934375 -2.61875 -23.7934375 -2.61875 -22.5625 -3.25 C-14.60618865 -5.57867649 -7.38478087 -3.20805713 0 0 Z " fill="#22B14C" transform="translate(978,235)"/>
<path d="M0 0 C5.64709251 4.31476982 9.07735693 10.22574686 10.64453125 17.14453125 C10.92989794 19.38055521 11.05759083 21.56365196 11.1171875 23.81640625 C11.16746094 24.55761719 11.21773437 25.29882812 11.26953125 26.0625 C11.78135922 37.87548965 5.71277911 45.85311516 -0.74365234 55.15429688 C-2.08315804 57.10872354 -3.33988636 59.10425856 -4.5703125 61.12890625 C-6.3605188 64.04348774 -8.28162289 66.83693859 -10.2578125 69.62890625 C-13.38916035 74.05645473 -16.32576544 78.58225962 -19.20703125 83.17578125 C-21.05439171 86.08677348 -22.96672696 88.95029968 -24.8828125 91.81640625 C-23.03550537 91.70196167 -23.03550537 91.70196167 -21.15087891 91.58520508 C-16.59327821 91.30693145 -12.03471916 91.04892731 -7.47558594 90.79711914 C-5.5003283 90.68516188 -3.52537664 90.56766623 -1.55078125 90.44458008 C1.28323711 90.26887663 4.11774958 90.11294671 6.953125 89.9609375 C7.83962738 89.90170609 8.72612976 89.84247467 9.63949585 89.78144836 C12.12646484 89.65942383 12.12646484 89.65942383 16.1171875 89.81640625 C18.1171875 92.81640625 18.1171875 92.81640625 17.9921875 95.37890625 C17.1171875 97.81640625 17.1171875 97.81640625 15.50073242 98.93139648 C12.33566389 100.10658581 9.47713383 100.23396006 6.10546875 100.4140625 C5.42378128 100.45311707 4.74209381 100.49217163 4.03974915 100.53240967 C1.83677313 100.65662852 -0.36661326 100.76832368 -2.5703125 100.87890625 C-4.07571818 100.9592339 -5.58108953 101.04020764 -7.08642578 101.12182617 C-9.31392361 101.24245355 -11.54143182 101.36238603 -13.76916504 101.47859192 C-17.76430127 101.68921039 -21.75103135 101.94238713 -25.73828125 102.26953125 C-26.92127808 102.3622229 -26.92127808 102.3622229 -28.12817383 102.45678711 C-30.09661053 102.61587777 -32.06399594 102.78783543 -34.03125 102.9609375 C-36.8828125 102.81640625 -36.8828125 102.81640625 -38.7578125 101.49609375 C-40.64926149 98.67205533 -40.51312856 97.15708138 -39.8828125 93.81640625 C-38.41710921 91.84334413 -36.76770125 90.12518546 -35.078125 88.33984375 C-32.37784288 85.23596075 -30.14026729 81.93726169 -27.8828125 78.50390625 C-27.45613281 77.85502441 -27.02945313 77.20614258 -26.58984375 76.53759766 C-23.50313215 71.81195547 -20.45754193 67.0596317 -17.453125 62.28125 C-14.7118102 57.97834045 -11.85523964 53.76913484 -8.90234375 49.609375 C-7.83301781 48.07443851 -6.76401362 46.53927783 -5.6953125 45.00390625 C-5.14939453 44.24787109 -4.60347656 43.49183594 -4.04101562 42.71289062 C1.25780875 35.01088196 1.63695041 28.17610374 0.57421875 19.05078125 C-0.00694639 16.20952945 -1.19999872 14.15771238 -2.8828125 11.81640625 C-2.8828125 11.15640625 -2.8828125 10.49640625 -2.8828125 9.81640625 C-10.6044192 5.76600988 -16.47905647 5.39974104 -24.87890625 7.82421875 C-32.85697435 10.29524772 -32.85697435 10.29524772 -39.9921875 14.4609375 C-41.8828125 15.81640625 -41.8828125 15.81640625 -44.6328125 15.50390625 C-45.3753125 15.27703125 -46.1178125 15.05015625 -46.8828125 14.81640625 C-47.6953125 12.69140625 -47.6953125 12.69140625 -47.8828125 9.81640625 C-43.60521252 2.21178406 -35.47802397 0.13991186 -27.4921875 -2.16015625 C-17.47635915 -4.65246702 -9.06080144 -5.695898 0 0 Z " fill="#A349A4" transform="translate(1017.8828125,390.18359375)"/>
<path d="M0 0 C2.91563649 2.46006829 2.97840956 4.44568713 3.3125 8.1875 C3.2406534 13.77100751 1.14989807 18.60659902 -1 23.6875 C-1.30035156 24.41324219 -1.60070312 25.13898438 -1.91015625 25.88671875 C-6.15006224 35.22919558 -13.3272708 41.90270567 -22.4375 46.375 C-27.64209095 48.29248088 -32.39759445 49.6875 -38 49.6875 C-38.48155059 45.3621438 -38.7620407 41.03178264 -39 36.6875 C-39.05816895 35.70652344 -39.11633789 34.72554687 -39.17626953 33.71484375 C-39.35163108 30.39346606 -39.46245178 27.07443881 -39.5625 23.75 C-39.65724609 22.11526733 -39.65724609 22.11526733 -39.75390625 20.44750977 C-39.90542139 12.78119859 -39.90542139 12.78119859 -37.3527832 9.69775391 C-35.30669794 8.13093835 -33.27986362 6.88350726 -31 5.6875 C-29.68708984 4.89085938 -29.68708984 4.89085938 -28.34765625 4.078125 C-19.86396671 -0.15646875 -9.23376684 -4.03977299 0 0 Z " fill="#FFFFFF" transform="translate(897,77.3125)"/>
<path d="M0 0 C0.99 0.33 1.98 0.66 3 1 C2.34 1.66 1.68 2.32 1 3 C0.30331798 5.5745997 0.30331798 5.5745997 -0.18359375 8.609375 C-0.38919922 9.75792969 -0.59480469 10.90648437 -0.80664062 12.08984375 C-1.01482422 13.29769531 -1.22300781 14.50554687 -1.4375 15.75 C-3.96449112 30.11478865 -7.03078988 44.30456841 -10.375 58.5 C-10.9970475 61.14951647 -11.61790165 63.79931129 -12.23828125 66.44921875 C-12.39060715 67.09964645 -12.54293304 67.75007416 -12.69987488 68.42021179 C-14.21889164 74.91692883 -15.69239628 81.4236469 -17.14916992 87.93457031 C-18.23009322 92.7317515 -19.36822615 97.50897098 -20.5703125 102.27734375 C-23.29791865 113.15164113 -25.57366976 123.70235358 -26.57421875 134.87109375 C-26.95879307 139.01378672 -27.6843017 143.04799793 -28.5 147.125 C-29.66740829 152.98872096 -30.53075348 158.84286154 -31.23266602 164.78076172 C-32.60003088 176.20097083 -34.1478909 187.62749741 -37.20703125 198.73046875 C-37.84739547 201.37078823 -38.3359522 203.93510712 -38.76171875 206.61328125 C-40.74392162 218.65380088 -44.32265319 227.78423009 -51 238 C-54.83911787 238 -56.72405145 236.98896876 -60 235 C-65.91666002 227.73468953 -69.42072406 219.05309548 -72.6953125 210.3671875 C-73.71782727 207.7282422 -74.79369827 205.2996606 -76.125 202.8125 C-77.69282628 199.82343282 -78.73941856 196.84567913 -79.75 193.625 C-81.65788542 187.64595749 -84.12967128 182.02878061 -86.83105469 176.37353516 C-89.22625156 171.20716517 -91.0641356 165.93676926 -92.828125 160.53125 C-95.85393384 151.26146024 -99.30234556 142.19560709 -102.875 133.125 C-103.49949739 131.52782271 -104.1235975 129.93049003 -104.74731445 128.33300781 C-107.53948553 121.19288485 -110.36503933 114.06920606 -113.27539062 106.97631836 C-117.74262556 96.07248663 -121.5423975 84.95495067 -125.32104492 73.79785156 C-125.55008011 73.12199509 -125.7791153 72.44613861 -126.01509094 71.74980164 C-126.64204374 69.89643677 -127.26618047 68.04211997 -127.89013672 66.18774414 C-128.56634887 64.24553077 -129.28021058 62.31523459 -130.05908203 60.41186523 C-131.06309622 57.83826478 -131.73527703 55.31183647 -132.375 52.625 C-134.13818486 45.38619584 -136.06616738 38.19472811 -138 31 C-139.94657747 23.75785532 -141.88799724 16.5144333 -143.75 9.25 C-143.99234375 8.30640625 -144.2346875 7.3628125 -144.484375 6.390625 C-145 4 -145 4 -145 1 C-144.34 1 -143.68 1 -143 1 C-140.46765155 8.11754743 -138.73544241 15.25007681 -137.125 22.625 C-135.19044108 31.28075547 -132.98878342 39.62372727 -130.01171875 47.97265625 C-129.11588936 50.65322682 -128.52364327 53.15694303 -128.0625 55.9375 C-127.03408262 61.73663131 -124.81704647 67.07331422 -122.69921875 72.5390625 C-120.88655705 77.23545662 -119.25771094 81.98873562 -117.625 86.75 C-115.12504162 93.97172323 -112.42354086 101.07713697 -109.54785156 108.15649414 C-106.06343407 116.76693146 -102.7126709 125.42788912 -99.3737793 134.09555054 C-98.71897874 135.7948348 -98.06324981 137.49376167 -97.40649414 139.19229126 C-94.08100864 147.79518231 -90.82358001 156.40807729 -87.796875 165.12109375 C-85.74968394 171.0066841 -83.52098306 176.73244281 -80.875 182.375 C-78.29759117 188.01494125 -75.95909571 193.63852287 -73.921875 199.5 C-72.57536645 203.1515486 -70.93155292 206.64747846 -69.28515625 210.171875 C-67.93381287 213.14565191 -66.7150018 216.15570868 -65.5 219.1875 C-62.64253316 226.65598198 -62.64253316 226.65598198 -58 233 C-56.00819646 233.37924895 -54.0076187 233.71613692 -52 234 C-46.52386957 224.92398867 -43.43759482 216.64000895 -41.3125 206.1875 C-41.0222923 204.82651677 -40.73101521 203.46576118 -40.4387207 202.10522461 C-37.04666535 186.11025621 -34.39355019 170.02268172 -32.49609375 153.78515625 C-31.78903247 148.39033436 -30.79710732 143.06304283 -29.78125 137.71875 C-29.05860592 133.70053634 -28.62373009 129.67016502 -28.171875 125.61328125 C-27.19154335 117.27893083 -25.35861334 109.23379804 -23.34558105 101.09570312 C-22.31696932 96.93656144 -21.3174855 92.77036932 -20.3125 88.60546875 C-20.11243347 87.7801767 -19.91236694 86.95488464 -19.70623779 86.10458374 C-17.70466908 77.8318108 -15.8517099 69.529659 -14.03051758 61.21533203 C-12.94987805 56.28314365 -11.85838358 51.35580953 -10.69921875 46.44140625 C-7.93796766 34.69311432 -5.65408898 22.92392316 -3.69897461 11.01196289 C-3.5056958 9.86848389 -3.31241699 8.72500488 -3.11328125 7.546875 C-2.94610596 6.52432617 -2.77893066 5.50177734 -2.60668945 4.44824219 C-2 2 -2 2 0 0 Z " fill="#000000" transform="translate(277,156)"/>
<path d="M0 0 C0.99 0 1.98 0 3 0 C2.99333817 1.0775631 2.99333817 1.0775631 2.98654175 2.17689514 C2.94612487 9.01520741 2.91584528 15.85350136 2.89637566 22.69190311 C2.886029 26.20586897 2.87204125 29.71973446 2.84912109 33.23364258 C2.82281836 37.29248911 2.81345208 41.35123364 2.8046875 45.41015625 C2.79436493 46.64516373 2.78404236 47.8801712 2.77340698 49.15260315 C2.77244151 56.82280845 3.39806882 64.15755283 4.52130127 71.72737122 C5.04166286 75.28482854 5.3797519 78.83261106 5.68212891 82.41333008 C6.93867868 96.82229768 10.85301169 109.00535807 19 121 C22.6827906 123.45519374 24.34822071 123.38648074 28.60546875 122.78125 C36.03225839 120.35815387 41.18152083 111.47818849 45.82421875 105.61328125 C48.07600919 102.90870709 50.4775898 100.4517297 53 98 C54.485 98.495 54.485 98.495 56 99 C55.45472656 99.52207031 54.90945313 100.04414063 54.34765625 100.58203125 C49.19614339 105.61026004 44.58155095 110.86405614 40.07421875 116.47265625 C33.48085106 124.50638298 33.48085106 124.50638298 29 126 C22.00798425 126.68773925 22.00798425 126.68773925 18 123.953125 C14.59352559 120.91786551 12.74412119 117.45765574 10.8125 113.375 C10.48314453 112.72660156 10.15378906 112.07820313 9.81445312 111.41015625 C4.95421326 101.45777641 3.16767623 90.72077929 1.8125 79.8125 C1.72528687 79.12520813 1.63807373 78.43791626 1.54821777 77.72979736 C-1.42115821 53.33986745 -0.34782216 28.51594095 0 4 C-1.10933086 5.57333255 -2.21709683 7.14776853 -3.32421875 8.72265625 C-3.94127686 9.59929932 -4.55833496 10.47594238 -5.1940918 11.37915039 C-9.80530363 18.07123624 -12.28202357 23.3951265 -13.47265625 31.46875 C-14.23275206 35.11720988 -15.57569631 37.19689886 -18 40 C-18.66 40 -19.32 40 -20 40 C-19.70480469 39.33355469 -19.40960938 38.66710937 -19.10546875 37.98046875 C-18.05085106 35.13710021 -17.38168041 32.34241668 -16.75854492 29.37915039 C-14.99775192 21.22090587 -12.37601637 15.49835799 -7 9 C-6.37222656 8.14019531 -5.74445313 7.28039062 -5.09765625 6.39453125 C-1.64309429 1.68376494 -1.64309429 1.68376494 0 0 Z " fill="#000000" transform="translate(331,237)"/>
<path d="M0 0 C0.66 0 1.32 0 2 0 C1.67 1.258125 1.34 2.51625 1 3.8125 C-1.71876257 17.46415885 0.01153843 32.21449136 1 46 C0.34 46 -0.32 46 -1 46 C-2.42382923 37.01207801 -3.22819772 28.16309311 -3.3125 19.0625 C-3.32990234 18.19987549 -3.34730469 17.33725098 -3.36523438 16.44848633 C-3.3606327 10.46803794 -2.21630499 5.54705165 0 0 Z " fill="#000000" transform="translate(342,113)"/>
</svg>
